<?xml version="1.0" encoding="UTF-8"?>
<svg version="1.1" xmlns="http://www.w3.org/2000/svg" width="250" height="250">
<path d="M0 0 C82.5 0 165 0 250 0 C250 82.5 250 165 250 250 C167.5 250 85 250 0 250 C0 167.5 0 85 0 0 Z " fill="#FEFEFE" transform="translate(0,0)"/>
<path d="M0 0 C1.98 0 3.96 0 6 0 C7 1 7 1 7.09765625 3.94140625 C7.08605469 5.13636719 7.07445313 6.33132812 7.0625 7.5625 C7.05347656 8.76003906 7.04445313 9.95757812 7.03515625 11.19140625 C7.02355469 12.11824219 7.01195313 13.04507813 7 14 C8.32 14 9.64 14 11 14 C11 9.38 11 4.76 11 0 C12.98 0 14.96 0 17 0 C18 1 18 1 18.11352539 4.14282227 C18.11336633 5.53402697 18.10767506 6.92523761 18.09765625 8.31640625 C18.0962413 9.04746078 18.09482635 9.77851532 18.09336853 10.53172302 C18.08775408 12.87535632 18.07519922 15.21889539 18.0625 17.5625 C18.05748686 19.14778508 18.05292363 20.73307166 18.04882812 22.31835938 C18.03777997 26.2122761 18.02050572 30.10612205 18 34 C15.69 34 13.38 34 11 34 C11 29.38 11 24.76 11 20 C9.68 20 8.36 20 7 20 C7 24.62 7 29.24 7 34 C4.69 34 2.38 34 0 34 C0 22.78 0 11.56 0 0 Z " fill="#D7323A" transform="translate(110,72)"/>
<path d="M0 0 C9.7374975 -0.76740348 9.7374975 -0.76740348 14.1875 1.9375 C16.59471551 6.00486414 16.78620122 9.37382649 16 14 C14.97265625 16.27734375 14.97265625 16.27734375 14 18 C14.64453125 18.18304688 15.2890625 18.36609375 15.953125 18.5546875 C18 20 18 20 18.609375 23.2578125 C18.65578125 24.53398438 18.7021875 25.81015625 18.75 27.125 C18.80671875 28.40632813 18.8634375 29.68765625 18.921875 31.0078125 C18.94765625 31.99523437 18.9734375 32.98265625 19 34 C12.125 33.125 12.125 33.125 11 32 C10.92773498 30.14712498 10.9161878 28.29166122 10.9375 26.4375 C10.94652344 25.42558594 10.95554687 24.41367188 10.96484375 23.37109375 C10.97644531 22.58863281 10.98804687 21.80617188 11 21 C10.01 21 9.02 21 8 21 C8 25.29 8 29.58 8 34 C5.69 34 3.38 34 1 34 C0.13387208 22.64753762 -0.11858127 11.38380184 0 0 Z " fill="#DA2C34" transform="translate(70,73)"/>
<path d="M0 0 C5.25335793 -0.33651403 9.7076774 -0.481883 14.6875 1.375 C17.73929296 4.83919742 17.60912732 7.09052013 17.34375 11.58203125 C16.95800126 14.29542294 16.29215689 16.57720583 15 19 C15.33 19.33 15.66 19.66 16 20 C16.07271741 22.35313555 16.08370868 24.70833668 16.0625 27.0625 C16.05347656 28.35285156 16.04445312 29.64320312 16.03515625 30.97265625 C16.02355469 31.97167969 16.01195312 32.97070312 16 34 C13.69 34 11.38 34 9 34 C8.97421875 33.08476563 8.9484375 32.16953125 8.921875 31.2265625 C8.86515625 30.03804687 8.8084375 28.84953125 8.75 27.625 C8.70359375 26.44164063 8.6571875 25.25828125 8.609375 24.0390625 C8.40828125 23.03617188 8.2071875 22.03328125 8 21 C6.68 20.34 5.36 19.68 4 19 C4 23.62 4 28.24 4 33 C2.35 32.67 0.7 32.34 -1 32 C-1.10194194 21.27344291 -1.07419152 10.68436922 0 0 Z " fill="#DC242D" transform="translate(152,74)"/>
<path d="M0 0 C11 0 11 0 14.6875 1.25 C17.93714801 5.11444628 17.55370201 8.20993296 17.40625 13.125 C17.01462827 15.89647685 16.51358279 17.66475799 15 20 C12.04335481 21.4783226 9.25770263 21.06032783 6 21 C6 24.96 6 28.92 6 33 C3.69 33 1.38 33 -1 33 C-0.67 22.11 -0.34 11.22 0 0 Z " fill="#D72B34" transform="translate(132,73)"/>
<path d="M0 0 C1.65 0 3.3 0 5 0 C5.5079846 3.99902767 6.00493676 7.99935384 6.5 12 C6.64308594 13.12535156 6.78617188 14.25070313 6.93359375 15.41015625 C7.65976893 21.323297 8.17521659 27.04263601 8 33 C6.35 33 4.7 33 3 33 C2.1276588 30.00519083 1.89170234 27.36424089 1.9375 24.25 C1.94652344 23.45078125 1.95554687 22.6515625 1.96484375 21.828125 C1.97644531 21.22484375 1.98804688 20.6215625 2 20 C0.35 20 -1.3 20 -3 20 C-2.34 24.95 -1.68 29.9 -1 35 C-3.31 35 -5.62 35 -8 35 C-8.51283306 31.56429127 -9.00780398 28.12622082 -9.5 24.6875 C-9.64308594 23.73037109 -9.78617188 22.77324219 -9.93359375 21.78710938 C-10.87257641 15.14716053 -11.17714233 8.70270487 -11 2 C-9.02 2 -7.04 2 -5 2 C-4.1276588 4.99480917 -3.89170234 7.63575911 -3.9375 10.75 C-3.94652344 11.54921875 -3.95554687 12.3484375 -3.96484375 13.171875 C-3.98224609 14.07679687 -3.98224609 14.07679687 -4 15 C-2.35 15 -0.7 15 1 15 C0.835 14.01 0.67 13.02 0.5 12 C-0.08474517 7.97267058 -0.07132024 4.06525377 0 0 Z " fill="#D9272F" transform="translate(38,76)"/>
<path d="M0 0 C2.97 0 5.94 0 9 0 C9.98219908 4.20763149 10.96022284 8.41622285 11.9375 12.625 C12.21529297 13.81480469 12.49308594 15.00460938 12.77929688 16.23046875 C13.04677734 17.38417969 13.31425781 18.53789063 13.58984375 19.7265625 C13.83597412 20.78439941 14.08210449 21.84223633 14.33569336 22.93212891 C14.98791252 25.94417815 15.51931162 28.95630514 16 32 C14.02 32 12.04 32 10 32 C10 30.35 10 28.7 10 27 C7.69 27 5.38 27 3 27 C3 28.98 3 30.96 3 33 C1.35 33 -0.3 33 -2 33 C-2.14841673 25.56473399 -1.69670763 18.27516483 -1 10.875 C-0.90460937 9.823125 -0.80921875 8.77125 -0.7109375 7.6875 C-0.47794718 5.12460652 -0.24090324 2.56215969 0 0 Z " fill="#E40E18" transform="translate(52,75)"/>
<path d="M0 0 C4.80002395 0.82759034 6.3553616 2.03637248 9.625 5.625 C10 8.4375 10 8.4375 9.625 10.625 C7.645 10.625 5.665 10.625 3.625 10.625 C3.295 9.305 2.965 7.985 2.625 6.625 C1.635 6.625 0.645 6.625 -0.375 6.625 C0.83096493 12.21629193 2.27617942 14.7004546 6.625 18.625 C9.45321344 21.35568884 9.85799523 23.3657194 10 27.1875 C10.02718106 29.87389449 9.94725239 31.17243237 8.37890625 33.375 C5.12206721 35.6961325 1.44156186 35.23812997 -2.375 34.625 C-4.9375 33 -4.9375 33 -6.375 30.625 C-6.625 27.375 -6.625 27.375 -6.375 24.625 C-4.395 24.625 -2.415 24.625 -0.375 24.625 C-0.375 26.275 -0.375 27.925 -0.375 29.625 C0.615 29.295 1.605 28.965 2.625 28.625 C2.625 25.24756642 2.19497625 23.21094542 -0.1875 20.76171875 C-0.909375 20.11847656 -1.63125 19.47523437 -2.375 18.8125 C-5.40070765 15.97181763 -6.99118509 14.08485406 -7.625 9.9375 C-7.69106421 6.75540738 -7.32340232 5.51965473 -5.875 2.5625 C-3.375 0.625 -3.375 0.625 0 0 Z " fill="#D8262F" transform="translate(97.375,71.375)"/>
<path d="M0 0 C1.72880982 -0.05449838 3.45812712 -0.09301688 5.1875 -0.125 C6.15042969 -0.14820312 7.11335937 -0.17140625 8.10546875 -0.1953125 C11.12812778 0.0086456 13.26769985 0.73125368 16 2 C16 3.32 16 4.64 16 6 C13.03 6 10.06 6 7 6 C6.67 8.64 6.34 11.28 6 14 C7.65 14 9.3 14 11 14 C11 15.65 11 17.3 11 19 C8.36 19 5.72 19 3 19 C3 21.97 3 24.94 3 28 C5.64 28.33 8.28 28.66 11 29 C11.33 30.65 11.66 32.3 12 34 C6.47322267 34.19392201 2.24385089 33.7479503 -3 32 C-3.17920191 24.83939034 -2.4925587 18.02401143 -1.5 10.9375 C-1.35691406 9.88111328 -1.21382812 8.82472656 -1.06640625 7.73632812 C-0.71624103 5.15677765 -0.36067163 2.57809875 0 0 Z " fill="#DD242C" transform="translate(192,78)"/>
<path d="M0 0 C6.93 0.495 6.93 0.495 14 1 C14 2.65 14 4.3 14 6 C11.03 6 8.06 6 5 6 C5.33 8.64 5.66 11.28 6 14 C7.65 14.33 9.3 14.66 11 15 C11 16.65 11 18.3 11 20 C8.69 20 6.38 20 4 20 C4 22.97 4 25.94 4 29 C5.11375 28.95875 6.2275 28.9175 7.375 28.875 C11 29 11 29 13 31 C13 32.32 13 33.64 13 35 C10.70800823 34.85936865 8.41640814 34.71234057 6.125 34.5625 C4.84882813 34.48128906 3.57265625 34.40007812 2.2578125 34.31640625 C-1 34 -1 34 -3 33 C-2.6913407 28.8122077 -2.37738709 24.62482826 -2.0625 20.4375 C-1.97548828 19.25607422 -1.88847656 18.07464844 -1.79882812 16.85742188 C-1.3710939 11.20182491 -0.91266535 5.59932526 0 0 Z " fill="#DF222A" transform="translate(173,75)"/>
<path d="M0 0 C6.0018137 -0.21824777 11.19233704 0.4943096 17 2 C17 3.65 17 5.3 17 7 C15.02 7 13.04 7 11 7 C10.95101562 7.94359375 10.90203125 8.8871875 10.8515625 9.859375 C10.3759456 18.02686518 9.54398786 25.95027687 8 34 C6.02 34 4.04 34 2 34 C0.7934463 29.59308399 1.19240663 25.64383488 1.8125 21.1875 C1.95244385 20.12499023 1.95244385 20.12499023 2.09521484 19.04101562 C2.75375918 14.24478319 3.6456513 9.64348127 5 5 C3.35 4.67 1.7 4.34 0 4 C0 2.68 0 1.36 0 0 Z " fill="#E01B24" transform="translate(210,80)"/>
<path d="M0 0 C1.65 0 3.3 0 5 0 C5.5079846 3.99902767 6.00493676 7.99935384 6.5 12 C6.64308594 13.12535156 6.78617188 14.25070313 6.93359375 15.41015625 C7.65976893 21.323297 8.17521659 27.04263601 8 33 C6.35 33 4.7 33 3 33 C2.92523438 32.02417969 2.85046875 31.04835938 2.7734375 30.04296875 C2.64195313 28.77066406 2.51046875 27.49835938 2.375 26.1875 C2.25898437 24.92292969 2.14296875 23.65835938 2.0234375 22.35546875 C1.31685152 18.73036911 1.31685152 18.73036911 -2.0859375 17.05078125 C-3.04757813 16.70402344 -4.00921875 16.35726562 -5 16 C-5 15.67 -5 15.34 -5 15 C-3.02 15 -1.04 15 1 15 C0.835 14.01 0.67 13.02 0.5 12 C-0.08474517 7.97267058 -0.07132024 4.06525377 0 0 Z " fill="#E4111B" transform="translate(38,76)"/>
<path d="M0 0 C2.68453989 2.68453989 2.63504234 4.71152616 3.1875 8.4375 C3.45626953 10.16806641 3.45626953 10.16806641 3.73046875 11.93359375 C4 15 4 15 3 18 C3.99 18.66 4.98 19.32 6 20 C3.69 20 1.38 20 -1 20 C-1 21.98 -1 23.96 -1 26 C-2.65 26 -4.3 26 -6 26 C-6.1567564 18.28410183 -5.67453101 10.68483539 -5 3 C-4.67 3 -4.34 3 -4 3 C-4 5.97 -4 8.94 -4 12 C-3.34 12 -2.68 12 -2 12 C-1.34 8.04 -0.68 4.08 0 0 Z " fill="#DD222B" transform="translate(56,82)"/>
<path d="M0 0 C1.65 0 3.3 0 5 0 C5 2.97 5 5.94 5 9 C3.35 9.33 1.7 9.66 0 10 C0 6.7 0 3.4 0 0 Z " fill="#DCCECF" transform="translate(157,79)"/>
<path d="M0 0 C0.33 0 0.66 0 1 0 C1.30071865 7.55137932 0.42625566 14.58856436 -1 22 C-2.98 22 -4.96 22 -7 22 C-5.68 21.67 -4.36 21.34 -3 21 C-2.95101562 20.32195312 -2.90203125 19.64390625 -2.8515625 18.9453125 C-2.33435787 12.50700659 -1.40818879 6.30267023 0 0 Z " fill="#AF9091" transform="translate(219,92)"/>
<path d="M0 0 C2.72106694 2.72106694 2.60655572 4.84776311 3.125 8.625 C3.29257812 9.81351563 3.46015625 11.00203125 3.6328125 12.2265625 C3.75398438 13.14179687 3.87515625 14.05703125 4 15 C2.68 15 1.36 15 0 15 C0 10.05 0 5.1 0 0 Z " fill="#CAB5B6" transform="translate(56,82)"/>
<path d="M0 0 C0.99 0 1.98 0 3 0 C3 3.3 3 6.6 3 10 C2.01 10.33 1.02 10.66 0 11 C0 7.37 0 3.74 0 0 Z " fill="#FAF2F2" transform="translate(139,78)"/>
<path d="M0 0 C1.0725 0.103125 2.145 0.20625 3.25 0.3125 C3.25 0.6425 3.25 0.9725 3.25 1.3125 C1.27 1.3125 -0.71 1.3125 -2.75 1.3125 C-4.87046792 4.84661321 -5.28199289 8.25643835 -5.75 12.3125 C-6.41 11.9825 -7.07 11.6525 -7.75 11.3125 C-8.08975517 7.66013197 -7.95830209 5.69577585 -6.1875 2.4375 C-3.75 0.3125 -3.75 0.3125 0 0 Z " fill="#E93239" transform="translate(97.75,71.6875)"/>
<path d="M0 0 C0.66 0 1.32 0 2 0 C2 1.65 2 3.3 2 5 C0.02 5.33 -1.96 5.66 -4 6 C-4.99 9.465 -4.99 9.465 -6 13 C-6.33 13 -6.66 13 -7 13 C-7 10.03 -7 7.06 -7 4 C-4.69 4 -2.38 4 0 4 C0 2.68 0 1.36 0 0 Z " fill="#C1C2C2" transform="translate(184,91)"/>
<path d="M0 0 C0.99 0 1.98 0 3 0 C3 2.97 3 5.94 3 9 C2.01 9 1.02 9 0 9 C0 6.03 0 3.06 0 0 Z " fill="#FCF5F6" transform="translate(77,79)"/>
<path d="M0 0 C0.66 1.32 1.32 2.64 2 4 C2.66 4 3.32 4 4 4 C4 5.98 4 7.96 4 10 C2.68 10 1.36 10 0 10 C0 6.7 0 3.4 0 0 Z " fill="#E82832" transform="translate(50,98)"/>
<path d="M0 0 C0 1.32 0 2.64 0 4 C-2.97 3.67 -5.94 3.34 -9 3 C-5.92807025 0.26939578 -4.09590633 -0.34132553 0 0 Z " fill="#E5050F" transform="translate(187,77)"/>
</svg>
